<svg width="40" height="40" viewBox="0 0 40 40" fill="none" xmlns="http://www.w3.org/2000/svg">
<mask id="mask0_852_289" style="mask-type:alpha" maskUnits="userSpaceOnUse" x="0" y="0" width="40" height="40">
<circle cx="20" cy="20" r="20" fill="#C4C4C4"/>
</mask>
<g mask="url(#mask0_852_289)">
<path d="M25.4475 29.2147L19.9997 33.8022L14.552 29.2147C11.7315 26.8395 10.1036 23.3403 10.1036 19.653V18.1767C10.1035 12.7112 14.5342 8.28053 19.9997 8.28053C25.4653 8.28053 29.8959 12.7112 29.8959 18.1767V19.653C29.8959 23.3403 28.2679 26.8395 25.4475 29.2147Z" fill="url(#paint0_linear_852_289)"/>
<path d="M30.2567 32.1002L24.7672 30.4857C24.1022 30.2901 23.6455 29.6798 23.6455 28.9866V26.5099H16.3535V28.9866C16.3535 29.6798 15.8969 30.2902 15.2318 30.4857L9.74236 32.1002C8.41238 32.4914 7.49905 33.712 7.49905 35.0984V39.0102C7.49905 39.8732 8.19864 40.5728 9.0616 40.5728H30.9373C31.8003 40.5728 32.4999 39.8732 32.4999 39.0102V35.0984C32.4999 33.712 31.5866 32.4914 30.2567 32.1002Z" fill="url(#paint1_linear_852_289)"/>
<path d="M30.2567 32.1007L24.7672 30.4862C24.6744 30.4589 24.5868 30.4218 24.5028 30.3792L19.9994 33.8022L15.4965 30.3792C15.4124 30.4218 15.3248 30.4589 15.232 30.4862L9.74236 32.1007C8.41238 32.4919 7.49905 33.7125 7.49905 35.0988V39.0107C7.49905 39.8737 8.19864 40.5733 9.0616 40.5733H30.9373C31.8003 40.5733 32.4999 39.8737 32.4999 39.0107V35.0988C32.4999 33.7125 31.5866 32.4919 30.2567 32.1007Z" fill="url(#paint2_linear_852_289)"/>
<path d="M16.3538 27.6722C17.448 28.2567 18.6889 28.5933 19.9998 28.5933C21.3106 28.5933 22.5515 28.2567 23.6457 27.6722V26.5099H16.3538V27.6722Z" fill="url(#paint3_linear_852_289)"/>
<path d="M27.0313 18.6977H26.7709V12.9683H13.2287V18.6977H12.9683C12.2492 18.6977 11.6662 19.2806 11.6662 19.9997C11.6662 20.7189 12.2492 21.3018 12.9683 21.3018H13.2551C13.5219 24.7972 16.4361 27.5521 19.9998 27.5521C23.5635 27.5521 26.4777 24.7972 26.7445 21.3018H27.0313C27.7504 21.3018 28.3334 20.7188 28.3334 19.9997C28.3335 19.2806 27.7504 18.6977 27.0313 18.6977Z" fill="url(#paint4_linear_852_289)"/>
<path d="M26.7709 12.9683H13.2287V18.6977H13.0427C12.3615 18.6977 11.7408 19.1877 11.673 19.8654C11.5949 20.6449 12.2048 21.3019 12.9683 21.3019H13.2551C13.5219 24.7973 16.4361 27.5521 19.9998 27.5521C20.3561 27.5521 20.7035 27.5174 21.0448 27.4643C17.7995 26.9635 15.3121 24.1666 15.3121 20.7811V17.0392C15.3121 16.3603 15.948 15.8688 16.6073 16.0312C17.452 16.2394 18.3358 16.4138 19.2436 16.5334C19.306 16.5416 19.3678 16.5455 19.4283 16.5455C19.8946 16.5455 20.3299 16.3133 20.5926 15.9244C20.7893 15.6332 20.8685 15.2846 20.8231 14.9452C22.3985 15.3549 24.7678 16.252 26.7708 18.1144V12.9683H26.7709Z" fill="url(#paint5_linear_852_289)"/>
<path d="M16.8746 20.3059C16.5868 20.3059 16.3538 20.0727 16.3538 19.785V19.2642C16.3538 18.9766 16.5868 18.7433 16.8746 18.7433C17.1625 18.7433 17.3955 18.9766 17.3955 19.2642V19.785C17.3955 20.0727 17.1625 20.3059 16.8746 20.3059Z" fill="url(#paint6_radial_852_289)"/>
<path d="M23.1246 20.3058C22.8367 20.3058 22.6038 20.0726 22.6038 19.785V19.2641C22.6038 18.9765 22.8367 18.7433 23.1246 18.7433C23.4125 18.7433 23.6455 18.9765 23.6455 19.2641V19.785C23.6455 20.0726 23.4125 20.3058 23.1246 20.3058Z" fill="url(#paint7_radial_852_289)"/>
<path d="M17.3954 18.1764H16.3537C16.0658 18.1764 15.8329 17.9432 15.8329 17.6556C15.8329 17.3679 16.0658 17.1347 16.3537 17.1347H17.3954C17.6833 17.1347 17.9163 17.3679 17.9163 17.6556C17.9163 17.9432 17.6833 18.1764 17.3954 18.1764Z" fill="url(#paint8_linear_852_289)"/>
<path d="M23.6457 18.1764H22.604C22.3161 18.1764 22.0831 17.9432 22.0831 17.6556C22.0831 17.3679 22.3161 17.1347 22.604 17.1347H23.6457C23.9336 17.1347 24.1665 17.3679 24.1665 17.6556C24.1665 17.9432 23.9336 18.1764 23.6457 18.1764Z" fill="url(#paint9_linear_852_289)"/>
<path d="M19.9997 23.9062C19.2184 23.9062 18.4972 23.6554 18.0714 23.2353C17.8665 23.0334 17.8644 22.7035 18.0664 22.4988C18.2683 22.2941 18.5989 22.2918 18.8029 22.4937C18.9763 22.6649 19.3939 22.8645 19.9997 22.8645C20.6055 22.8645 21.0231 22.6649 21.1966 22.4937C21.4006 22.2918 21.7312 22.2941 21.9331 22.4988C22.1351 22.7035 22.133 23.0334 21.928 23.2353C21.5022 23.6555 20.7809 23.9062 19.9997 23.9062Z" fill="#B67F5F"/>
<path d="M12.1867 18.9427L13.3501 18.8058C13.8748 18.7441 14.2701 18.2995 14.2701 17.7712V12.9683H12.1867V18.9427V18.9427Z" fill="url(#paint10_linear_852_289)"/>
<path d="M27.8122 18.9427L26.6488 18.8058C26.1242 18.7441 25.7288 18.2995 25.7288 17.7713V12.9683H27.8122V18.9427V18.9427Z" fill="url(#paint11_linear_852_289)"/>
<path d="M28.5527 13.2147C26.8389 10.2674 23.6547 8.28053 19.9997 8.28053C16.4284 8.28053 13.3084 10.1787 11.5682 13.0148V13.1675C13.2467 13.9296 16.1812 15.0793 19.3795 15.5005C19.6581 15.5372 19.8717 15.2542 19.7669 14.9935L19.4355 14.1694C19.327 13.8997 19.5559 13.6175 19.8423 13.6668C21.3044 13.9186 24.9628 14.8061 27.8125 17.6558L28.5527 13.2147Z" fill="url(#paint12_linear_852_289)"/>
<path d="M19.9997 8.28053C16.4284 8.28053 13.3084 10.1787 11.5682 13.0148V13.1675C11.9619 13.3462 12.43 13.5471 12.9492 13.7541C14.4254 11.4093 17.0301 9.84309 19.9997 9.84309C23.8861 9.84309 27.1501 12.521 28.0675 16.1259L28.5527 13.2147C26.8389 10.2674 23.6547 8.28053 19.9997 8.28053Z" fill="url(#paint13_linear_852_289)"/>
<path d="M19.9996 7.75915C14.2555 7.75915 9.58258 12.4323 9.58258 18.1762V19.6526C9.58258 23.5022 11.2718 27.1324 14.2163 29.6128L19.4788 34.0444V40.5728H20.5205V34.0443L25.7829 29.6128V29.6125C28.7274 27.1324 30.4167 23.5022 30.4167 19.6525V18.1762C30.4167 12.4323 25.7438 7.75915 19.9996 7.75915ZM29.375 19.6525C29.375 23.1942 27.8211 26.5339 25.1115 28.8157L19.9996 33.1209L14.8877 28.816C12.1782 26.5339 10.6243 23.1942 10.6243 19.6525V18.1762C10.6243 13.0066 14.8303 8.80085 19.9996 8.80085C25.169 8.80085 29.375 13.0066 29.375 18.1762V19.6525Z" fill="url(#paint14_linear_852_289)"/>
<path d="M19.9997 33.8029C19.4267 33.8029 18.958 34.2716 18.958 34.8446V35.8863C18.958 36.4592 19.4267 36.928 19.9997 36.928C20.5727 36.928 21.0414 36.4592 21.0414 35.8863V34.8446C21.0414 34.2716 20.5727 33.8029 19.9997 33.8029Z" fill="url(#paint15_linear_852_289)"/>
<path d="M11.8333 35.9165L8.42273 32.8848C8.17336 33.133 7.97084 33.423 7.81715 33.7401L11.1416 36.6953C11.4747 36.9916 11.666 37.4171 11.666 37.8631V40.5734H12.7077V37.8631C12.7077 37.1197 12.3893 36.4102 11.8333 35.9165Z" fill="url(#paint16_linear_852_289)"/>
<path d="M28.1658 35.9165L31.5764 32.8848C31.8257 33.133 32.0282 33.423 32.1819 33.7401L28.8576 36.6953C28.5244 36.9916 28.3331 37.4171 28.3331 37.8631V40.5734H27.2914V37.8631C27.2915 37.1197 27.6098 36.4102 28.1658 35.9165Z" fill="url(#paint17_linear_852_289)"/>
</g>
<defs>
<linearGradient id="paint0_linear_852_289" x1="19.9997" y1="8.28053" x2="19.9997" y2="33.8022" gradientUnits="userSpaceOnUse">
<stop stop-color="#78A8EB"/>
<stop offset="1" stop-color="#99BBEB"/>
</linearGradient>
<linearGradient id="paint1_linear_852_289" x1="16.6665" y1="28.7494" x2="20.4556" y2="33.6601" gradientUnits="userSpaceOnUse">
<stop stop-color="#E6AC82"/>
<stop offset="1" stop-color="#F2CBAF"/>
</linearGradient>
<linearGradient id="paint2_linear_852_289" x1="19.9995" y1="30.3792" x2="19.9995" y2="40.5733" gradientUnits="userSpaceOnUse">
<stop stop-color="#78A8EB"/>
<stop offset="1" stop-color="#99BBEB"/>
</linearGradient>
<linearGradient id="paint3_linear_852_289" x1="16.6658" y1="27.5516" x2="19.6681" y2="31.4936" gradientUnits="userSpaceOnUse">
<stop stop-color="#E6A470"/>
<stop offset="1" stop-color="#E6A370" stop-opacity="0"/>
</linearGradient>
<linearGradient id="paint4_linear_852_289" x1="15.4158" y1="15.7767" x2="25.3526" y2="25.4721" gradientUnits="userSpaceOnUse">
<stop stop-color="#F3B68A"/>
<stop offset="1" stop-color="#FED5B8"/>
</linearGradient>
<linearGradient id="paint5_linear_852_289" x1="13.9251" y1="13.1839" x2="18.8112" y2="27.6894" gradientUnits="userSpaceOnUse">
<stop stop-color="#EBA873"/>
<stop offset="1" stop-color="#EBA773" stop-opacity="0"/>
</linearGradient>
<radialGradient id="paint6_radial_852_289" cx="0" cy="0" r="1" gradientUnits="userSpaceOnUse" gradientTransform="translate(16.6672 19.2106) rotate(71.565) scale(1.31758 0.878389)">
<stop stop-color="#040404"/>
<stop offset="1" stop-color="#767676"/>
</radialGradient>
<radialGradient id="paint7_radial_852_289" cx="0" cy="0" r="1" gradientUnits="userSpaceOnUse" gradientTransform="translate(22.9172 19.2106) rotate(71.565) scale(1.31758 0.878388)">
<stop stop-color="#040404"/>
<stop offset="1" stop-color="#767676"/>
</radialGradient>
<linearGradient id="paint8_linear_852_289" x1="16.25" y1="17.0828" x2="16.8746" y2="18.1764" gradientUnits="userSpaceOnUse">
<stop stop-color="#6E5A64"/>
<stop offset="1" stop-color="#6E5A64" stop-opacity="0.86"/>
</linearGradient>
<linearGradient id="paint9_linear_852_289" x1="22.5003" y1="17.0828" x2="23.1248" y2="18.1764" gradientUnits="userSpaceOnUse">
<stop stop-color="#6E5A64"/>
<stop offset="1" stop-color="#6E5A64" stop-opacity="0.86"/>
</linearGradient>
<linearGradient id="paint10_linear_852_289" x1="12.9165" y1="13.7499" x2="12.7979" y2="19.1425" gradientUnits="userSpaceOnUse">
<stop stop-color="#473A41"/>
<stop offset="1" stop-color="#6E5A64"/>
</linearGradient>
<linearGradient id="paint11_linear_852_289" x1="26.4586" y1="13.7499" x2="26.3399" y2="19.1425" gradientUnits="userSpaceOnUse">
<stop stop-color="#473A41"/>
<stop offset="1" stop-color="#6E5A64"/>
</linearGradient>
<linearGradient id="paint12_linear_852_289" x1="14.5835" y1="11.2499" x2="26.3871" y2="18.68" gradientUnits="userSpaceOnUse">
<stop stop-color="#473A41"/>
<stop offset="1" stop-color="#6E5A64"/>
</linearGradient>
<linearGradient id="paint13_linear_852_289" x1="20.0001" y1="9.16656" x2="23.3335" y2="15.4166" gradientUnits="userSpaceOnUse">
<stop stop-color="#64505A"/>
<stop offset="1" stop-color="#64505A" stop-opacity="0"/>
</linearGradient>
<linearGradient id="paint14_linear_852_289" x1="19.9996" y1="7.75915" x2="19.9996" y2="40.5728" gradientUnits="userSpaceOnUse">
<stop stop-color="#A5CDFF"/>
<stop offset="0.600905" stop-color="#BDDAFF"/>
</linearGradient>
<linearGradient id="paint15_linear_852_289" x1="19.9997" y1="33.8029" x2="19.9997" y2="36.928" gradientUnits="userSpaceOnUse">
<stop stop-color="#473A41"/>
<stop offset="1" stop-color="#6E5A64"/>
</linearGradient>
<linearGradient id="paint16_linear_852_289" x1="10.2624" y1="32.8848" x2="10.2624" y2="40.5734" gradientUnits="userSpaceOnUse">
<stop offset="0.21875" stop-color="#A5CDFF"/>
<stop offset="1" stop-color="#D9EAFF"/>
</linearGradient>
<linearGradient id="paint17_linear_852_289" x1="29.7367" y1="32.8848" x2="29.7367" y2="40.5734" gradientUnits="userSpaceOnUse">
<stop offset="0.21875" stop-color="#A5CDFF"/>
<stop offset="1" stop-color="#D9EAFF"/>
</linearGradient>
</defs>
</svg>
