<svg width="40" height="40" viewBox="0 0 40 40" fill="none" xmlns="http://www.w3.org/2000/svg">
<mask id="mask0_852_361" style="mask-type:alpha" maskUnits="userSpaceOnUse" x="0" y="0" width="40" height="40">
<circle cx="20" cy="20" r="20" fill="#C4C4C4"/>
</mask>
<g mask="url(#mask0_852_361)">
<path d="M20 8.62328C15.2375 8.62328 11.3768 12.484 11.3768 17.2465V21.1354C11.3768 27.9409 15.6028 31.4199 15.6028 31.4199H28.6231V17.2465C28.6231 12.484 24.7624 8.62328 20 8.62328Z" fill="#FFD164"/>
<path d="M11.3768 17.2465V21.1354C11.3768 27.9409 15.6028 31.4199 15.6028 31.4199H20V8.62328C15.2375 8.62328 11.3768 12.484 11.3768 17.2465Z" fill="url(#paint0_linear_852_361)"/>
<path d="M29.6362 33.2688L24.3973 31.4197C23.5861 31.1334 23.0436 30.3667 23.0436 29.5064V26.3767H16.9565V29.5064C16.9565 30.3667 16.414 31.1334 15.6029 31.4197L10.3639 33.2688C9.1471 33.6983 8.33341 34.8484 8.33341 36.1387V38.5507C8.33341 39.3911 9.01473 40.0724 9.85514 40.0724H30.145C30.9854 40.0724 31.6667 39.3911 31.6667 38.5507V36.1387C31.6667 34.8484 30.853 33.6983 29.6362 33.2688Z" fill="url(#paint1_linear_852_361)"/>
<path d="M29.6362 33.2692L25.2765 31.7304C24.5263 33.9263 22.4501 35.5075 20.0001 35.5075C17.5501 35.5075 15.474 33.9262 14.7238 31.7304L10.364 33.2692C9.14716 33.6986 8.33347 34.8488 8.33347 36.1391V38.551C8.33347 39.3914 9.01479 40.0728 9.8552 40.0728H30.1451C30.9855 40.0728 31.6668 39.3914 31.6668 38.551V36.1391C31.6667 34.8488 30.853 33.6986 29.6362 33.2692Z" fill="url(#paint2_linear_852_361)"/>
<path d="M19.9999 37.5365C23.3335 37.5365 26.1593 35.3892 27.188 32.4051L25.2763 31.7304C24.5261 33.9263 22.4499 35.5075 19.9999 35.5075C17.5499 35.5075 15.4738 33.9262 14.7236 31.7304L12.8119 32.4051C13.8405 35.3892 16.6663 37.5365 19.9999 37.5365Z" fill="url(#paint3_linear_852_361)"/>
<path d="M12.0129 36.5438L9.14021 34.0816C8.90766 34.3346 8.72295 34.6265 8.58702 34.9433L11.353 37.3141C11.6904 37.6034 11.884 38.0244 11.884 38.4695V40.0725H12.8985V38.4695C12.8986 37.728 12.5756 37.026 12.0129 36.5438Z" fill="url(#paint4_linear_852_361)"/>
<path d="M16.9567 28.264C17.782 28.6315 18.6822 28.8595 19.6337 28.9043C19.7564 28.9101 19.8787 28.913 20.0002 28.913C21.0824 28.913 22.1107 28.6823 23.0437 28.2733V26.3767H16.9567V28.264Z" fill="url(#paint5_linear_852_361)"/>
<path d="M26.7753 19.2758C26.1149 19.2758 25.5795 18.7405 25.5795 18.08V17.2468C25.5795 15.8461 24.444 14.7106 23.0433 14.7106H16.9564C15.5556 14.7106 14.4201 15.8461 14.4201 17.2468V18.08C14.4201 18.7405 13.8848 19.2758 13.2243 19.2758C12.561 19.2758 11.9565 19.7531 11.8904 20.4131C11.8144 21.1722 12.4085 21.8121 13.152 21.8121H13.4312C13.691 25.2161 16.5291 27.899 19.9998 27.899C23.4705 27.899 26.3086 25.2161 26.5684 21.8121H26.8476C27.5912 21.8121 28.1852 21.1722 28.1092 20.4131C28.0431 19.7531 27.4387 19.2758 26.7753 19.2758Z" fill="url(#paint6_linear_852_361)"/>
<path d="M16.9571 16.4496C17.4542 16.3786 17.9626 16.5166 18.3426 16.8448C20.8555 19.0152 24.1094 20.2903 27.6085 20.2903C27.7598 20.2903 27.9181 20.2863 28.0818 20.28C27.9515 19.6864 27.3834 19.2692 26.7606 19.2759C26.1056 19.2829 25.5795 18.7351 25.5795 18.08V17.2468C25.5795 15.8461 24.444 14.7106 23.0433 14.7106H16.9563C16.3834 14.7106 15.8592 14.9061 15.4346 15.2266V15.2293C14.822 15.6923 14.4201 16.4198 14.4201 17.2468V18.1319C14.4201 18.7897 13.8684 19.2693 13.2107 19.2758C12.5528 19.2824 11.9562 19.7575 11.8905 20.4131C11.8145 21.1721 12.4085 21.812 13.152 21.812H13.4313C13.6911 25.2161 16.5292 27.899 19.9999 27.899C20.3468 27.899 20.6852 27.8652 21.0175 27.8135C17.857 27.3257 15.4346 24.6018 15.4346 21.3047V18.205C15.4346 17.3226 16.0835 16.5745 16.9571 16.4496Z" fill="url(#paint7_linear_852_361)"/>
<path d="M16.9564 20.7967C16.676 20.7967 16.4491 20.5695 16.4491 20.2894V19.7822C16.4491 19.5021 16.676 19.275 16.9564 19.275C17.2367 19.275 17.4636 19.5021 17.4636 19.7822V20.2894C17.4636 20.5695 17.2367 20.7967 16.9564 20.7967Z" fill="url(#paint8_radial_852_361)"/>
<path d="M23.0434 20.7968C22.763 20.7968 22.5362 20.5696 22.5362 20.2895V19.7823C22.5362 19.5022 22.7631 19.275 23.0434 19.275C23.3238 19.275 23.5507 19.5022 23.5507 19.7823V20.2895C23.5507 20.5696 23.3238 20.7968 23.0434 20.7968Z" fill="url(#paint9_radial_852_361)"/>
<path d="M19.9999 24.3485C19.239 24.3485 18.5366 24.1043 18.122 23.6952C17.9224 23.4985 17.9204 23.1773 18.117 22.9779C18.3137 22.7783 18.6357 22.7763 18.8343 22.9729C19.0032 23.1396 19.4099 23.334 19.9998 23.334C20.5898 23.334 20.9965 23.1396 21.1654 22.9729C21.3641 22.7762 21.6861 22.7783 21.8827 22.9779C22.0794 23.1773 22.0773 23.4985 21.8777 23.6952C21.4632 24.1043 20.7608 24.3485 19.9999 24.3485Z" fill="#E3AA75"/>
<path d="M27.987 36.5438L30.8597 34.0816C31.0923 34.3346 31.277 34.6265 31.4129 34.9433L28.6469 37.3141C28.3095 37.6034 28.1159 38.0244 28.1159 38.4695V40.0725H27.1014V38.4695C27.1013 37.728 27.4243 37.0261 27.987 36.5438Z" fill="url(#paint10_linear_852_361)"/>
<path d="M15.942 18.7686C15.7295 18.7686 15.5319 18.6341 15.461 18.4216C15.3723 18.1558 15.516 17.8685 15.7815 17.7798L17.3033 17.2726C17.5713 17.1832 17.8561 17.3276 17.9448 17.5934C18.0335 17.8591 17.8898 18.1464 17.6243 18.2351L16.1025 18.7424C16.049 18.7602 15.995 18.7686 15.942 18.7686Z" fill="url(#paint11_linear_852_361)"/>
<path d="M19.9999 8.62328C18.1653 8.62328 16.4678 9.20049 15.07 10.1771C16.7917 15.458 21.7531 19.2754 27.6086 19.2754C27.9503 19.2754 28.2879 19.2583 28.6231 19.2327V17.2464C28.6231 12.484 24.7624 8.62328 19.9999 8.62328Z" fill="url(#paint12_radial_852_361)"/>
<path d="M23.0432 27.8982V29.9272C23.0432 34.4062 26.5939 36.0142 26.5939 40.0721H28.6229V27.8982H23.0432Z" fill="#FFD164"/>
</g>
<defs>
<linearGradient id="paint0_linear_852_361" x1="15.6884" y1="8.62328" x2="15.6884" y2="31.4199" gradientUnits="userSpaceOnUse">
<stop stop-color="#FFA436"/>
<stop offset="1" stop-color="#FFC773"/>
</linearGradient>
<linearGradient id="paint1_linear_852_361" x1="17.0835" y1="29.5833" x2="24.133" y2="39.819" gradientUnits="userSpaceOnUse">
<stop stop-color="#F5D48E"/>
<stop offset="1" stop-color="#FFE7B3"/>
</linearGradient>
<linearGradient id="paint2_linear_852_361" x1="12.0835" y1="32.9169" x2="29.1668" y2="38.7503" gradientUnits="userSpaceOnUse">
<stop stop-color="#75D8FF"/>
<stop offset="1" stop-color="#ADEBFF"/>
</linearGradient>
<linearGradient id="paint3_linear_852_361" x1="13.7499" y1="32.0836" x2="27.9166" y2="34.1669" gradientUnits="userSpaceOnUse">
<stop stop-color="#EDEBED"/>
<stop offset="1" stop-color="#FCFAFC"/>
</linearGradient>
<linearGradient id="paint4_linear_852_361" x1="10.7428" y1="34.0816" x2="10.7428" y2="40.0725" gradientUnits="userSpaceOnUse">
<stop stop-color="#8CACEB"/>
<stop offset="1" stop-color="#8CACEB" stop-opacity="0"/>
</linearGradient>
<linearGradient id="paint5_linear_852_361" x1="17.0835" y1="27.9166" x2="21.2798" y2="30.7542" gradientUnits="userSpaceOnUse">
<stop stop-color="#EBC178"/>
<stop offset="1" stop-color="#F7D291" stop-opacity="0.14"/>
</linearGradient>
<linearGradient id="paint6_linear_852_361" x1="15.4166" y1="15.0005" x2="26.2499" y2="27.0839" gradientUnits="userSpaceOnUse">
<stop stop-color="#F7D78F"/>
<stop offset="1" stop-color="#FFE7B3"/>
</linearGradient>
<linearGradient id="paint7_linear_852_361" x1="14.9999" y1="14.5839" x2="22.0832" y2="28.7505" gradientUnits="userSpaceOnUse">
<stop stop-color="#F7CB7E"/>
<stop offset="1" stop-color="#F7D291" stop-opacity="0.14"/>
</linearGradient>
<radialGradient id="paint8_radial_852_361" cx="0" cy="0" r="1" gradientUnits="userSpaceOnUse" gradientTransform="translate(16.7543 19.7301) rotate(71.565) scale(1.28315 0.855435)">
<stop stop-color="#040404"/>
<stop offset="1" stop-color="#767676"/>
</radialGradient>
<radialGradient id="paint9_radial_852_361" cx="0" cy="0" r="1" gradientUnits="userSpaceOnUse" gradientTransform="translate(22.8414 19.7301) rotate(71.5651) scale(1.28315 0.855435)">
<stop stop-color="#040404"/>
<stop offset="1" stop-color="#767676"/>
</radialGradient>
<linearGradient id="paint10_linear_852_361" x1="29.2571" y1="34.0816" x2="29.2571" y2="40.0725" gradientUnits="userSpaceOnUse">
<stop stop-color="#8CACEB"/>
<stop offset="1" stop-color="#8CACEB" stop-opacity="0"/>
</linearGradient>
<linearGradient id="paint11_linear_852_361" x1="15.8334" y1="17.5" x2="17.5001" y2="18.3333" gradientUnits="userSpaceOnUse">
<stop stop-color="#E3AA75"/>
<stop offset="1" stop-color="#FABB81"/>
</linearGradient>
<radialGradient id="paint12_radial_852_361" cx="0" cy="0" r="1" gradientUnits="userSpaceOnUse" gradientTransform="translate(21.2499 8.75003) rotate(75.9638) scale(10.3078 13.1149)">
<stop stop-color="#FAD348"/>
<stop offset="1" stop-color="#FFE17D"/>
</radialGradient>
</defs>
</svg>
