<svg width="40" height="40" viewBox="0 0 40 40" fill="none" xmlns="http://www.w3.org/2000/svg">
<mask id="mask0_852_316" style="mask-type:alpha" maskUnits="userSpaceOnUse" x="0" y="0" width="40" height="40">
<circle cx="20" cy="20" r="20" fill="#C4C4C4"/>
</mask>
<g mask="url(#mask0_852_316)">
<path d="M33.6336 29.6459C33.6774 26.6212 32.6691 26.0951 32.165 24.3197C31.6575 22.5323 32.1739 21.3118 31.5732 19.3333C31.0143 17.4922 29.9989 17.1811 29.6883 14.566C29.1621 10.1384 24.3839 7.85895 22.0167 7.85895C21.3473 7.85895 20.8903 8.02884 20.583 8.23204C20.2274 8.46735 19.773 8.46735 19.4174 8.23204C19.1101 8.02884 18.6531 7.85895 17.9837 7.85895C15.6165 7.85895 10.8382 10.1384 10.3122 14.566C10.0015 17.181 8.98615 17.4921 8.42724 19.3333C7.82661 21.3118 8.34296 22.5323 7.83546 24.3197C7.33133 26.0951 6.32308 26.6212 6.3669 29.6459C6.41774 33.1537 4.39422 33.942 5.18328 36.2653C5.77219 37.9993 8.95328 39.4216 8.95328 39.4216H31.0472C31.0472 39.4216 34.2283 37.9992 34.8172 36.2653C35.6062 33.942 33.5827 33.1537 33.6336 29.6459Z" fill="url(#paint0_linear_852_316)"/>
<path d="M20.0002 8.40849C19.7977 8.40849 19.5952 8.3497 19.4174 8.23204C19.1101 8.02884 18.6531 7.85895 17.9837 7.85895C15.6165 7.85895 10.8382 10.1384 10.3122 14.566C10.0015 17.181 8.98615 17.4921 8.42724 19.3333C7.82661 21.3118 8.34296 22.5323 7.83546 24.3197C7.33133 26.0951 6.32308 26.6212 6.3669 29.6459C6.41774 33.1537 4.39422 33.942 5.18328 36.2653C5.77219 37.9993 8.95328 39.4216 8.95328 39.4216H20.0002V8.40849Z" fill="url(#paint1_linear_852_316)"/>
<path d="M29.9935 33.4183L24.5604 31.5007C23.7191 31.2038 23.1565 30.4086 23.1565 29.5165V26.7969H16.8439V29.5165C16.8439 30.4086 16.2813 31.2038 15.44 31.5007L10.0069 33.4183C8.74501 33.8637 7.90117 35.0564 7.90117 36.3946V38.8959C7.90117 39.7675 8.60773 40.4741 9.47929 40.4741H30.5211C31.3927 40.4741 32.0992 39.7675 32.0992 38.8959V36.3946C32.0992 35.0564 31.2554 33.8637 29.9935 33.4183Z" fill="url(#paint2_linear_852_316)"/>
<path d="M29.9934 33.4185L26.3682 32.1389C24.9415 34.1109 22.9998 36.2856 20.7396 37.4906C20.2785 37.7364 19.7219 37.7364 19.2608 37.4906C17.0006 36.2856 15.0589 34.1109 13.6322 32.1389L10.0069 33.4185C8.74503 33.8639 7.90119 35.0566 7.90119 36.3948V38.8961C7.90119 39.7676 8.60776 40.4742 9.47931 40.4742H30.5211C31.3927 40.4742 32.0992 39.7676 32.0992 38.8961V36.3948C32.0992 35.0566 31.2553 33.8639 29.9934 33.4185Z" fill="url(#paint3_linear_852_316)"/>
<path d="M16.844 28.228C17.8152 28.6574 18.8825 28.9011 20.0002 28.9011C21.118 28.9011 22.1852 28.6575 23.1565 28.228V26.7969H16.8439L16.844 28.228Z" fill="url(#paint4_linear_852_316)"/>
<path d="M20.0002 27.8485C16.2233 27.8485 13.1616 24.7868 13.1616 21.0099V12.0672H26.8388V21.01C26.8388 24.7868 23.777 27.8485 20.0002 27.8485Z" fill="url(#paint5_linear_852_316)"/>
<path d="M13.1616 12.0672V21.01C13.1616 24.7868 16.2234 27.8486 20.0002 27.8486C20.359 27.8486 20.7084 27.8126 21.0523 27.7594C17.7763 27.2521 15.2658 24.4282 15.2658 21.01V18.2743C15.2658 17.8418 15.3999 17.4239 15.629 17.057C15.6302 17.055 15.6314 17.0531 15.6326 17.0512C16.4963 15.6651 17.3049 15.4613 18.241 15.2255C18.7786 15.09 19.405 14.9322 20.0001 14.5356C20.5954 14.9322 21.2217 15.09 21.7593 15.2255C22.6954 15.4614 23.5039 15.6651 24.3677 17.0511C25.1712 18.3404 26.0703 19.0531 26.8387 19.6037V12.0672H13.1616Z" fill="url(#paint6_linear_852_316)"/>
<path d="M20.0002 24.6927C19.2106 24.6927 18.4826 24.4394 18.0527 24.0151C17.8456 23.8106 17.8436 23.4778 18.0475 23.2712C18.2525 23.0642 18.5854 23.0622 18.7913 23.2661C18.9665 23.4387 19.3878 23.6406 20.0001 23.6406C20.6125 23.6406 21.0337 23.4387 21.2089 23.2661C21.4149 23.0621 21.7478 23.0642 21.9527 23.2712C22.1567 23.4778 22.1546 23.8107 21.9476 24.0151C21.5177 24.4394 20.7898 24.6927 20.0002 24.6927Z" fill="#A06E50"/>
<path d="M16.8439 21.01C16.5531 21.01 16.3179 20.7747 16.3179 20.4839V19.9579C16.3179 19.6671 16.5532 19.4319 16.8439 19.4319C17.1347 19.4319 17.37 19.6672 17.37 19.9579V20.4839C17.37 20.7747 17.1347 21.01 16.8439 21.01Z" fill="url(#paint7_radial_852_316)"/>
<path d="M23.1565 21.01C22.8657 21.01 22.6304 20.7747 22.6304 20.4839V19.9579C22.6304 19.6671 22.8657 19.4319 23.1565 19.4319C23.4473 19.4319 23.6825 19.6672 23.6825 19.9579V20.4839C23.6825 20.7747 23.4473 21.01 23.1565 21.01Z" fill="url(#paint8_radial_852_316)"/>
<path d="M17.37 18.9065H16.3179C16.0271 18.9065 15.7919 18.6712 15.7919 18.3805C15.7919 18.0897 16.0272 17.8544 16.3179 17.8544H17.37C17.6608 17.8544 17.896 18.0897 17.896 18.3805C17.896 18.6712 17.6607 18.9065 17.37 18.9065Z" fill="url(#paint9_linear_852_316)"/>
<path d="M23.6825 18.9064H22.6304C22.3396 18.9064 22.1043 18.6711 22.1043 18.3804C22.1043 18.0897 22.3397 17.8544 22.6304 17.8544H23.6825C23.9733 17.8544 24.2085 18.0897 24.2085 18.3804C24.2085 18.6711 23.9733 18.9064 23.6825 18.9064Z" fill="url(#paint10_linear_852_316)"/>
<path d="M11.753 36.283L9.06787 33.9515C8.79274 34.1757 8.56157 34.4444 8.3769 34.7443L11.0635 37.0772C11.4087 37.3773 11.607 37.8118 11.607 38.2691V40.4734H12.6591V38.269C12.6592 37.5066 12.3289 36.7829 11.753 36.283Z" fill="url(#paint11_linear_852_316)"/>
<path d="M28.2711 36.2831L30.9562 33.9516C31.2313 34.1758 31.4625 34.4445 31.6471 34.7444L28.9605 37.0773C28.6153 37.3774 28.417 37.8119 28.417 38.2692V40.4735H27.3649V38.2691C27.3649 37.5067 27.6951 36.783 28.2711 36.2831Z" fill="url(#paint12_linear_852_316)"/>
<path d="M32.165 24.3197C31.6575 22.5323 32.1739 21.3118 31.5732 19.3333C31.0143 17.4922 29.9989 17.1811 29.6883 14.566C29.1622 10.1384 24.3839 7.85895 22.0167 7.85895C21.3473 7.85895 20.8903 8.02884 20.583 8.23204C20.4052 8.3497 20.2027 8.40849 20.0002 8.40849V13.1194C21.3591 14.8291 23.3756 13.4701 25.2607 16.4949C26.8629 19.0658 28.8747 19.0008 29.5824 21.0278C29.7853 21.6087 29.6753 22.2294 29.7238 22.8429C29.995 26.2705 32.6252 27.8487 33.8076 31.4256C33.6948 30.9148 33.6236 30.3339 33.6336 29.6459C33.6774 26.6212 32.6691 26.0951 32.165 24.3197Z" fill="url(#paint13_linear_852_316)"/>
<path d="M7.83539 24.3197C8.34289 22.5323 7.82653 21.3118 8.42717 19.3333C8.98608 17.4922 10.0015 17.1811 10.3121 14.566C10.8382 10.1384 15.6165 7.85895 17.9837 7.85895C18.653 7.85895 19.1101 8.02884 19.4174 8.23204C19.5952 8.3497 19.7977 8.40849 20.0002 8.40849V13.1194C18.6413 14.8291 16.6248 13.4701 14.7397 16.4949C13.1375 19.0658 11.1257 19.0008 10.4179 21.0278C10.2151 21.6087 10.3251 22.2294 10.2766 22.8429C10.0054 26.2705 7.37515 27.8487 6.1928 31.4256C6.30555 30.9148 6.37683 30.3339 6.36683 29.6459C6.323 26.6212 7.33126 26.0951 7.83539 24.3197Z" fill="url(#paint14_linear_852_316)"/>
</g>
<defs>
<linearGradient id="paint0_linear_852_316" x1="20.0002" y1="7.85895" x2="20.0002" y2="39.4216" gradientUnits="userSpaceOnUse">
<stop stop-color="#33282D"/>
<stop offset="1" stop-color="#6E5561"/>
</linearGradient>
<linearGradient id="paint1_linear_852_316" x1="12.5003" y1="7.85895" x2="12.5003" y2="39.4216" gradientUnits="userSpaceOnUse">
<stop stop-color="#1A1417"/>
<stop offset="1" stop-color="#5A4650"/>
</linearGradient>
<linearGradient id="paint2_linear_852_316" x1="15.2474" y1="31.5128" x2="21.3619" y2="39.3456" gradientUnits="userSpaceOnUse">
<stop stop-color="#D4A06C"/>
<stop offset="1" stop-color="#FABD80"/>
</linearGradient>
<linearGradient id="paint3_linear_852_316" x1="11.6666" y1="32.9167" x2="27.9166" y2="39.1667" gradientUnits="userSpaceOnUse">
<stop stop-color="#ACED8E"/>
<stop offset="1" stop-color="#A6FFAA"/>
</linearGradient>
<linearGradient id="paint4_linear_852_316" x1="17.0464" y1="27.0963" x2="18.6681" y2="30.4094" gradientUnits="userSpaceOnUse">
<stop stop-color="#C58646"/>
<stop offset="1" stop-color="#C68748" stop-opacity="0.06"/>
</linearGradient>
<linearGradient id="paint5_linear_852_316" x1="13.8464" y1="13.8621" x2="26.7635" y2="21.2088" gradientUnits="userSpaceOnUse">
<stop stop-color="#EDB379"/>
<stop offset="1" stop-color="#FFC182"/>
</linearGradient>
<linearGradient id="paint6_linear_852_316" x1="13.6004" y1="14.313" x2="22.0047" y2="18.1771" gradientUnits="userSpaceOnUse">
<stop stop-color="#C58646"/>
<stop offset="1" stop-color="#C68748" stop-opacity="0.06"/>
</linearGradient>
<radialGradient id="paint7_radial_852_316" cx="0" cy="0" r="1" gradientUnits="userSpaceOnUse" gradientTransform="translate(16.6344 19.9038) rotate(71.565) scale(1.33071 0.887138)">
<stop stop-color="#040404"/>
<stop offset="1" stop-color="#767676"/>
</radialGradient>
<radialGradient id="paint8_radial_852_316" cx="0" cy="0" r="1" gradientUnits="userSpaceOnUse" gradientTransform="translate(22.947 19.9038) rotate(71.5651) scale(1.33071 0.887138)">
<stop stop-color="#040404"/>
<stop offset="1" stop-color="#767676"/>
</radialGradient>
<linearGradient id="paint9_linear_852_316" x1="15.9291" y1="18.125" x2="16.1429" y2="19.217" gradientUnits="userSpaceOnUse">
<stop stop-color="#403239"/>
<stop offset="1" stop-color="#806371"/>
</linearGradient>
<linearGradient id="paint10_linear_852_316" x1="22.2415" y1="18.1249" x2="22.4554" y2="19.2169" gradientUnits="userSpaceOnUse">
<stop stop-color="#403239"/>
<stop offset="1" stop-color="#806371"/>
</linearGradient>
<linearGradient id="paint11_linear_852_316" x1="10.4166" y1="33.3328" x2="10.518" y2="40.4734" gradientUnits="userSpaceOnUse">
<stop stop-color="#87BA70"/>
<stop offset="1" stop-color="#87BA70" stop-opacity="0"/>
</linearGradient>
<linearGradient id="paint12_linear_852_316" x1="29.5833" y1="33.3329" x2="29.506" y2="40.4735" gradientUnits="userSpaceOnUse">
<stop stop-color="#86C985"/>
<stop offset="1" stop-color="#86C985" stop-opacity="0"/>
</linearGradient>
<linearGradient id="paint13_linear_852_316" x1="21.25" y1="8.33299" x2="33.3333" y2="30.833" gradientUnits="userSpaceOnUse">
<stop stop-color="#5C4B53"/>
<stop offset="1" stop-color="#7A646F"/>
</linearGradient>
<linearGradient id="paint14_linear_852_316" x1="15.4166" y1="7.91632" x2="6.24999" y2="35.4163" gradientUnits="userSpaceOnUse">
<stop offset="0.00373261" stop-color="#4A3B43"/>
<stop offset="1" stop-color="#826875"/>
</linearGradient>
</defs>
</svg>
